<?xml version="1.0" encoding="UTF-8" standalone="no"?>
<!-- Generator: Adobe Illustrator 22.0.1, SVG Export Plug-In . SVG Version: 6.00 Build 0)  -->

<svg
   xmlns:dc="http://purl.org/dc/elements/1.1/"
   xmlns:cc="http://creativecommons.org/ns#"
   xmlns:rdf="http://www.w3.org/1999/02/22-rdf-syntax-ns#"
   xmlns:svg="http://www.w3.org/2000/svg"
   xmlns="http://www.w3.org/2000/svg"
   xmlns:sodipodi="http://sodipodi.sourceforge.net/DTD/sodipodi-0.dtd"
   xmlns:inkscape="http://www.inkscape.org/namespaces/inkscape"
   version="1.1"
   id="Layer_1"
   x="0px"
   y="0px"
   viewBox="0 0 119.2 36.200001"
   xml:space="preserve"
   sodipodi:docname="Abbott World Marathon Majors Logo.svg"
   width="119.2"
   height="36.200001"
   inkscape:version="0.92.4 (5da689c313, 2019-01-14)"><metadata
   id="metadata27"><rdf:RDF><cc:Work
       rdf:about=""><dc:format>image/svg+xml</dc:format><dc:type
         rdf:resource="http://purl.org/dc/dcmitype/StillImage" /></cc:Work></rdf:RDF></metadata><defs
   id="defs25" /><sodipodi:namedview
   pagecolor="#ffffff"
   bordercolor="#666666"
   borderopacity="1"
   objecttolerance="10"
   gridtolerance="10"
   guidetolerance="10"
   inkscape:pageopacity="0"
   inkscape:pageshadow="2"
   inkscape:window-width="640"
   inkscape:window-height="480"
   id="namedview23"
   showgrid="false"
   inkscape:zoom="6.1769231"
   inkscape:cx="31.69726"
   inkscape:cy="18.55"
   inkscape:current-layer="Layer_1" />
<style
   type="text/css"
   id="style2">
	.st0{fill:#FFFFFF;}
</style>
<g
   id="g20"
   style="fill:#0096d9;fill-opacity:1"
   transform="translate(-5.7,-1.1)">
	<path
   class="st0"
   d="m 11.7,13.2 c -3.3,0 -6,2.7 -6,6 v 12.1 c 0,3.3 2.7,6 6,6 h 33.1 c 3.3,0 6,-2.7 6,-6 V 7.1 c 0,-3.3 -2.7,-6 -6,-6 h -39 v 6.1 h 37.1 c 1.1,0 1.9,0.9 1.9,1.9 v 20.1 c 0,1.1 -0.9,1.9 -1.9,1.9 H 13.7 c -1.1,0 -1.9,-0.9 -1.9,-1.9 v -8.1 c 0,-1.1 0.9,-1.9 1.9,-1.9 h 25.1 v -6 z m 88.9,23.3 c 0.3,0.3 1,0.8 2.4,0.8 1.6,0 2.5,-1.1 2.5,-2.2 0,-1.4 -1.3,-2.1 -2.1,-2.4 -0.8,-0.3 -1.1,-0.6 -1.1,-1 0,-0.3 0.3,-0.6 0.7,-0.6 0.6,0 1.4,0.6 1.5,0.6 0.1,0.1 0.3,0 0.4,-0.1 l 0.6,-0.8 c 0.1,-0.1 0.1,-0.3 -0.1,-0.3 -0.3,-0.3 -1.2,-0.8 -2.3,-0.8 -1.6,0 -2.4,1.1 -2.4,2.1 0,1.3 1.1,2 2.1,2.3 0.7,0.3 1.1,0.6 1.1,1.1 0,0.4 -0.3,0.6 -0.8,0.6 -0.7,0 -1.4,-0.6 -1.5,-0.6 -0.1,-0.1 -0.3,-0.1 -0.4,0.1 l -0.5,0.9 c -0.2,0.1 -0.1,0.2 -0.1,0.3 z M 94.3,33 v -1.6 h 1.6 c 0.4,0 0.8,0.4 0.8,0.8 0,0.4 -0.4,0.8 -0.8,0.8 z m -1.6,4 c 0,0.1 0.1,0.2 0.2,0.2 h 1.3 c 0.1,0 0.2,-0.1 0.2,-0.2 v -2.7 h 0.8 l 1.4,2.8 c 0,0.1 0.1,0.1 0.2,0.1 h 1.4 c 0.2,0 0.3,-0.2 0.2,-0.3 L 97,34.2 c 0.9,-0.4 1.6,-1.1 1.6,-2.1 0,-1.3 -1.1,-2.3 -2.3,-2.3 H 93.2 C 93.1,29.8 93,29.9 93,30 v 7 z m -8,-3.5 c 0,-1.2 0.9,-2.1 2.1,-2.1 1.2,0 2.1,0.9 2.1,2.1 0,1.1 -0.9,2.1 -2.1,2.1 -1.1,0.1 -2.1,-0.9 -2.1,-2.1 z m -1.6,0 c 0,2.1 1.7,3.8 3.8,3.8 2.1,0 3.8,-1.7 3.8,-3.8 0,-2.1 -1.7,-3.8 -3.8,-3.8 -2.2,0 -3.8,1.7 -3.8,3.8 z m -6.2,3 c 0.2,0.3 0.7,0.8 1.6,0.8 1.3,0 2.3,-0.8 2.3,-2.3 v -5 c 0,-0.1 -0.1,-0.2 -0.2,-0.2 h -1.3 c -0.1,0 -0.2,0.1 -0.2,0.2 v 4.9 c 0,0.5 -0.3,0.8 -0.6,0.8 -0.3,0 -0.4,-0.1 -0.6,-0.3 -0.1,-0.1 -0.2,-0.1 -0.3,0 l -0.7,0.7 c 0,0.2 0,0.4 0,0.4 z m -5.5,-1.8 0.8,-1.8 v 0 l 0.8,1.8 z m -2.6,2.5 H 70 c 0.2,0 0.3,-0.1 0.4,-0.3 L 70.8,36 h 2.9 l 0.4,0.8 c 0.1,0.2 0.2,0.3 0.4,0.3 h 1.2 c 0.2,0 0.3,-0.1 0.2,-0.3 l -3.3,-7.1 c -0.1,-0.1 -0.1,-0.1 -0.2,-0.1 h -0.1 c -0.1,0 -0.1,0.1 -0.2,0.1 l -3.3,7.1 c -0.2,0.3 -0.1,0.4 0,0.4 z M 58.9,37 c 0,0.1 0.1,0.3 0.2,0.3 h 1.3 c 0.1,0 0.2,-0.1 0.2,-0.2 L 61,33.8 v 0 l 1.8,3.4 c 0.1,0.1 0.1,0.1 0.2,0.1 h 0.2 c 0.1,0 0.1,-0.1 0.2,-0.1 l 1.8,-3.4 v 0 l 0.5,3.3 c 0,0.1 0.1,0.2 0.2,0.2 H 67 c 0.1,0 0.3,-0.1 0.2,-0.3 L 66,29.9 c 0,-0.1 -0.1,-0.2 -0.2,-0.2 h -0.1 c -0.1,0 -0.1,0.1 -0.2,0.1 l -2.4,4.6 v 0 l -2.4,-4.6 c -0.1,-0.1 -0.1,-0.1 -0.2,-0.1 h -0.2 c -0.1,0 -0.2,0.1 -0.2,0.2 z m 59.6,-9.6 c 0,0.1 0.1,0.2 0.2,0.2 h 1.3 c 0.1,0 0.2,-0.1 0.2,-0.2 v -3.9 0 l 4.2,4.2 0.1,0.1 h 0.2 c 0.1,0 0.2,-0.1 0.2,-0.2 v -7.1 c 0,-0.1 -0.1,-0.2 -0.2,-0.2 h -1.3 c -0.1,0 -0.2,0.1 -0.2,0.2 v 3.8 0 L 119,20.2 h -0.3 c -0.1,0 -0.2,0.1 -0.2,0.2 z m -8,-3.4 c 0,-1.2 0.9,-2.1 2.1,-2.1 1.2,0 2.1,0.9 2.1,2.1 0,1.1 -0.9,2.1 -2.1,2.1 -1.1,-0.1 -2.1,-1 -2.1,-2.1 z m -1.7,0 c 0,2.1 1.7,3.8 3.8,3.8 2.1,0 3.8,-1.7 3.8,-3.8 0,-2.1 -1.7,-3.8 -3.8,-3.8 -2.1,-0.1 -3.8,1.6 -3.8,3.8 z m -8.4,3.4 c 0,0.1 0.1,0.2 0.2,0.2 h 1.3 c 0.1,0 0.2,-0.1 0.2,-0.2 v -2.8 h 3 v 2.8 c 0,0.1 0.1,0.2 0.2,0.2 h 1.3 c 0.1,0 0.2,-0.1 0.2,-0.2 v -6.9 c 0,-0.1 -0.1,-0.2 -0.2,-0.2 h -1.3 c -0.1,0 -0.2,0.1 -0.2,0.2 v 2.6 h -3 v -2.6 c 0,-0.1 -0.1,-0.2 -0.2,-0.2 h -1.3 c -0.1,0 -0.2,0.1 -0.2,0.2 z m -5.6,0 c 0,0.1 0.1,0.2 0.2,0.2 h 1.3 c 0.1,0 0.2,-0.1 0.2,-0.2 V 21.8 H 98 c 0.1,0 0.2,-0.1 0.2,-0.2 v -1.1 c 0,-0.1 -0.1,-0.2 -0.2,-0.2 h -4.7 c -0.1,0 -0.2,0.1 -0.2,0.2 v 1.1 c 0,0.1 0.1,0.2 0.2,0.2 h 1.5 z m -7.2,-2.3 0.8,-1.8 v 0 l 0.8,1.8 z m -2.5,2.5 h 1.2 c 0.2,0 0.3,-0.1 0.4,-0.3 l 0.4,-0.8 H 90 l 0.4,0.8 c 0.1,0.2 0.2,0.3 0.4,0.3 H 92 c 0.2,0 0.3,-0.1 0.2,-0.3 l -3.3,-7.1 c -0.1,-0.1 -0.1,-0.1 -0.2,-0.1 h -0.1 c -0.1,0 -0.1,0.1 -0.2,0.1 l -3.3,7.1 c -0.2,0.2 -0.2,0.3 0,0.3 z M 79.4,23.4 V 21.8 H 81 c 0.4,0 0.8,0.4 0.8,0.8 0,0.4 -0.4,0.8 -0.8,0.8 z m -1.6,4 c 0,0.1 0.1,0.2 0.2,0.2 h 1.3 c 0.1,0 0.2,-0.1 0.2,-0.2 v -2.7 h 0.8 l 1.4,2.8 c 0,0.1 0.1,0.1 0.2,0.1 h 1.4 c 0.2,0 0.3,-0.2 0.2,-0.3 l -1.4,-2.7 c 0.9,-0.4 1.6,-1.1 1.6,-2.1 0,-1.3 -1.1,-2.3 -2.3,-2.3 H 78 c -0.1,0 -0.2,0.1 -0.2,0.2 z m -6.4,-2.3 0.8,-1.8 v 0 l 0.8,1.8 z m -2.6,2.5 H 70 c 0.2,0 0.3,-0.1 0.4,-0.3 l 0.4,-0.8 h 2.9 l 0.4,0.8 c 0.1,0.2 0.2,0.3 0.4,0.3 h 1.2 c 0.2,0 0.3,-0.1 0.2,-0.3 l -3.3,-7.1 c -0.1,-0.1 -0.1,-0.1 -0.2,-0.1 h -0.1 c -0.1,0 -0.1,0.1 -0.2,0.1 l -3.3,7.1 c -0.2,0.2 -0.1,0.3 0,0.3 z m -9.9,-0.2 c 0,0.1 0.1,0.3 0.2,0.3 h 1.3 c 0.1,0 0.2,-0.1 0.2,-0.2 L 61,24.2 v 0 l 1.8,3.4 c 0.1,0.1 0.1,0.1 0.2,0.1 h 0.2 c 0.1,0 0.1,-0.1 0.2,-0.1 l 1.8,-3.4 v 0 l 0.5,3.3 c 0,0.1 0.1,0.2 0.2,0.2 H 67 c 0.1,0 0.3,-0.1 0.2,-0.3 l -1.1,-7.1 c 0,-0.1 -0.1,-0.2 -0.2,-0.2 h -0.2 c -0.1,0 -0.1,0.1 -0.2,0.1 l -2.4,4.6 v 0 l -2.4,-4.6 c -0.1,-0.1 -0.1,-0.1 -0.2,-0.1 h -0.2 c -0.1,0 -0.2,0.1 -0.2,0.2 z m 35,-11 v -4.3 h 1 c 1.2,0 2.1,0.9 2.1,2.1 0,1.2 -0.9,2.1 -2.1,2.1 z m -1.7,1.4 c 0,0.1 0.1,0.2 0.2,0.2 H 95 c 2.1,0 3.7,-1.6 3.7,-3.7 0,-2 -1.7,-3.7 -3.7,-3.7 h -2.6 c -0.1,0 -0.2,0.1 -0.2,0.2 z m -6.3,0 c 0,0.1 0.1,0.2 0.2,0.2 H 90 c 0.1,0 0.2,-0.1 0.2,-0.2 v -1.1 c 0,-0.1 -0.1,-0.2 -0.2,-0.2 h -2.5 v -5.6 c 0,-0.1 -0.1,-0.2 -0.2,-0.2 H 86 c -0.1,0 -0.2,0.1 -0.2,0.2 v 6.9 z m -6.5,-4 V 12.2 H 81 c 0.4,0 0.8,0.4 0.8,0.8 0,0.4 -0.4,0.8 -0.8,0.8 z m -1.6,4 c 0,0.1 0.1,0.2 0.2,0.2 h 1.3 c 0.1,0 0.2,-0.1 0.2,-0.2 v -2.7 h 0.8 l 1.4,2.8 c 0,0.1 0.1,0.1 0.2,0.1 h 1.4 c 0.2,0 0.3,-0.2 0.2,-0.3 L 81.9,15 c 0.9,-0.4 1.6,-1.1 1.6,-2.1 0,-1.3 -1.1,-2.3 -2.3,-2.3 H 78 c -0.1,0 -0.2,0.1 -0.2,0.2 z M 70,14.3 c 0,-1.2 0.9,-2.1 2.1,-2.1 1.2,0 2.1,0.9 2.1,2.1 0,1.1 -0.9,2.1 -2.1,2.1 -1.1,0 -2.1,-1 -2.1,-2.1 z m -1.7,0 c 0,2.1 1.7,3.8 3.8,3.8 2.1,0 3.8,-1.7 3.8,-3.8 0,-2.1 -1.7,-3.8 -3.8,-3.8 -2.1,0 -3.8,1.7 -3.8,3.8 z m -7.6,3.6 c 0,0.1 0.1,0.1 0.2,0.1 H 61 c 0.1,0 0.1,-0.1 0.2,-0.1 l 1.9,-4.3 h 0.1 l 1.9,4.3 c 0.1,0.1 0.1,0.1 0.2,0.1 h 0.2 c 0.1,0 0.2,-0.1 0.2,-0.1 l 2,-7.1 c 0.1,-0.1 -0.1,-0.3 -0.2,-0.3 h -1.3 c -0.1,0 -0.2,0.1 -0.2,0.1 l -0.9,3.6 H 65 l -1.6,-3.7 c 0,-0.1 -0.1,-0.1 -0.2,-0.1 H 63 c -0.1,0 -0.1,0.1 -0.2,0.1 l -1.6,3.7 h -0.1 l -0.9,-3.6 c 0,-0.1 -0.1,-0.1 -0.2,-0.1 h -1.3 c -0.1,0 -0.3,0.1 -0.2,0.3 z"
   id="path4"
   style="fill:#0096d9;fill-opacity:1"
   inkscape:connector-curvature="0" />
	<g
   id="g18"
   style="fill:#0096d9;fill-opacity:1">
		<path
   class="st0"
   d="m 102.3,1.2 h -4.7 c -0.1,0 -0.2,0.1 -0.2,0.2 v 1.1 c 0,0.1 0.1,0.2 0.2,0.2 h 1.5 v 5.6 c 0,0.1 0.1,0.2 0.2,0.2 h 1.3 c 0.1,0 0.2,-0.1 0.2,-0.2 V 2.7 h 1.5 c 0.1,0 0.2,-0.1 0.2,-0.2 V 1.4 c 0.1,-0.1 -0.1,-0.2 -0.2,-0.2 z"
   id="path6"
   style="fill:#0096d9;fill-opacity:1"
   inkscape:connector-curvature="0" />
		<path
   class="st0"
   d="m 95.4,1.2 h -4.7 c -0.1,0 -0.2,0.1 -0.2,0.2 v 1.1 c 0,0.1 0.1,0.2 0.2,0.2 h 1.5 v 5.6 c 0,0.1 0.1,0.2 0.2,0.2 h 1.3 c 0.1,0 0.2,-0.1 0.2,-0.2 V 2.7 h 1.5 c 0.1,0 0.2,-0.1 0.2,-0.2 V 1.4 c 0.1,-0.1 0,-0.2 -0.2,-0.2 z"
   id="path8"
   style="fill:#0096d9;fill-opacity:1"
   inkscape:connector-curvature="0" />
		<path
   class="st0"
   d="m 85.4,1.1 c -2.1,0 -3.8,1.7 -3.8,3.8 0,2.1 1.7,3.8 3.8,3.8 2.1,0 3.8,-1.7 3.8,-3.8 C 89.1,2.8 87.4,1.1 85.4,1.1 Z m 0,5.9 c -1.1,0 -2.1,-0.9 -2.1,-2.1 0,-1.2 0.9,-2.1 2.1,-2.1 1.2,0 2.1,0.9 2.1,2.1 -0.1,1.2 -1,2.1 -2.1,2.1 z"
   id="path10"
   style="fill:#0096d9;fill-opacity:1"
   inkscape:connector-curvature="0" />
		<path
   class="st0"
   d="M 78.4,4.8 C 78.9,4.5 79.7,3.9 79.7,3.1 79.7,2 78.7,1.2 77.4,1.2 H 75 c -0.1,0 -0.2,0.1 -0.2,0.2 v 7 c 0,0.1 0.1,0.2 0.2,0.2 h 2.6 c 1.3,0 2.3,-0.9 2.3,-2.1 C 79.8,5.6 79,5.1 78.4,4.8 Z m -2,-2.1 h 0.8 c 0.4,0 0.8,0.3 0.8,0.7 0,0.4 -0.3,0.8 -0.8,0.8 h -0.8 z m 0.9,4.4 H 76.4 V 5.6 h 0.9 c 0.4,0 0.9,0.3 0.9,0.8 -0.2,0.3 -0.5,0.7 -0.9,0.7 z"
   id="path12"
   style="fill:#0096d9;fill-opacity:1"
   inkscape:connector-curvature="0" />
		<path
   class="st0"
   d="m 71.1,4.8 c 0.5,-0.3 1.3,-0.9 1.3,-1.7 0,-1.1 -1,-1.9 -2.3,-1.9 h -2.5 c -0.1,0 -0.2,0.1 -0.2,0.2 v 7 c 0,0.1 0.1,0.2 0.2,0.2 h 2.6 c 1.3,0 2.3,-0.9 2.3,-2.1 0,-0.9 -0.8,-1.4 -1.4,-1.7 z M 69,2.7 h 0.8 c 0.4,0 0.8,0.3 0.8,0.7 0,0.4 -0.3,0.8 -0.8,0.8 H 69 Z m 1,4.4 H 69 V 5.6 h 0.9 c 0.4,0 0.9,0.3 0.9,0.8 -0.1,0.3 -0.4,0.7 -0.8,0.7 z"
   id="path14"
   style="fill:#0096d9;fill-opacity:1"
   inkscape:connector-curvature="0" />
		<path
   class="st0"
   d="M 62.3,1.2 C 62.3,1.1 62.2,1.1 62.1,1.1 H 62 c -0.1,0 -0.1,0.1 -0.2,0.1 l -3.3,7.1 c -0.1,0.1 0,0.3 0.2,0.3 h 1.2 c 0.2,0 0.3,-0.1 0.4,-0.3 l 0.4,-0.8 h 2.9 L 64,8.3 c 0.1,0.2 0.2,0.3 0.4,0.3 h 1.2 c 0.2,0 0.3,-0.1 0.2,-0.3 z m -1,4.9 0.8,-1.8 v 0 L 63,6.1 Z"
   id="path16"
   style="fill:#0096d9;fill-opacity:1"
   inkscape:connector-curvature="0" />
	</g>
</g>
</svg>